<mxfile host="app.diagrams.net" modified="2024-06-11T06:08:00.891Z" agent="Mozilla/5.0 (Windows NT 10.0; Win64; x64) AppleWebKit/537.36 (KHTML, like Gecko) Chrome/125.0.0.0 Safari/537.36 Edg/125.0.0.0" etag="Q6mUaRU9KUsKx1ie_xhV" version="24.5.2" type="github">
  <diagram name="第 1 页" id="lp-h-IDp_jfbS1XNpj3D">
    <mxGraphModel dx="1213" dy="746" grid="1" gridSize="10" guides="1" tooltips="1" connect="1" arrows="1" fold="1" page="1" pageScale="1" pageWidth="827" pageHeight="1169" math="0" shadow="0">
      <root>
        <mxCell id="0" />
        <mxCell id="1" parent="0" />
        <mxCell id="fdmkG5_0djtjP1UlIzq4-1" value="玩家" style="html=1;whiteSpace=wrap;strokeColor=none;fillColor=#0079D6;labelPosition=center;verticalLabelPosition=middle;verticalAlign=top;align=center;fontSize=12;outlineConnect=0;spacingTop=-6;fontColor=#FFFFFF;sketch=0;shape=mxgraph.sitemap.game;" vertex="1" parent="1">
          <mxGeometry x="380" y="549" width="110" height="60" as="geometry" />
        </mxCell>
        <mxCell id="fdmkG5_0djtjP1UlIzq4-2" value="" style="endArrow=classic;html=1;rounded=0;exitX=0.5;exitY=0;exitDx=0;exitDy=0;dashed=1;entryX=0.5;entryY=1;entryDx=0;entryDy=0;" edge="1" parent="1" source="fdmkG5_0djtjP1UlIzq4-17" target="fdmkG5_0djtjP1UlIzq4-20">
          <mxGeometry width="50" height="50" relative="1" as="geometry">
            <mxPoint x="640" y="255" as="sourcePoint" />
            <mxPoint x="534" y="330" as="targetPoint" />
          </mxGeometry>
        </mxCell>
        <mxCell id="fdmkG5_0djtjP1UlIzq4-3" value="" style="endArrow=classic;html=1;rounded=0;exitX=0.5;exitY=0;exitDx=0;exitDy=0;entryX=0.5;entryY=1;entryDx=0;entryDy=0;dashed=1;" edge="1" parent="1" source="fdmkG5_0djtjP1UlIzq4-18" target="fdmkG5_0djtjP1UlIzq4-20">
          <mxGeometry width="50" height="50" relative="1" as="geometry">
            <mxPoint x="417.5" y="310" as="sourcePoint" />
            <mxPoint x="534" y="330" as="targetPoint" />
          </mxGeometry>
        </mxCell>
        <mxCell id="fdmkG5_0djtjP1UlIzq4-4" value="" style="endArrow=classic;html=1;rounded=0;exitX=0.5;exitY=0;exitDx=0;exitDy=0;entryX=0.5;entryY=1;entryDx=0;entryDy=0;dashed=1;" edge="1" parent="1" source="fdmkG5_0djtjP1UlIzq4-16" target="fdmkG5_0djtjP1UlIzq4-20">
          <mxGeometry width="50" height="50" relative="1" as="geometry">
            <mxPoint x="255" y="310" as="sourcePoint" />
            <mxPoint x="534" y="330" as="targetPoint" />
          </mxGeometry>
        </mxCell>
        <mxCell id="fdmkG5_0djtjP1UlIzq4-5" value="managesvr" style="image;aspect=fixed;perimeter=ellipsePerimeter;html=1;align=center;shadow=0;dashed=0;spacingTop=3;image=img/lib/active_directory/generic_server.svg;" vertex="1" parent="1">
          <mxGeometry x="587" y="292" width="28.000000000000004" height="50" as="geometry" />
        </mxCell>
        <mxCell id="fdmkG5_0djtjP1UlIzq4-6" value="&lt;div&gt;sdksvr集群&lt;/div&gt;" style="image;aspect=fixed;perimeter=ellipsePerimeter;html=1;align=center;shadow=0;dashed=0;spacingTop=3;image=img/lib/active_directory/server_farm.svg;imageBackground=none;" vertex="1" parent="1">
          <mxGeometry x="240" y="292" width="50" height="50" as="geometry" />
        </mxCell>
        <mxCell id="fdmkG5_0djtjP1UlIzq4-7" value="" style="endArrow=classic;html=1;rounded=0;exitX=0.25;exitY=0;exitDx=0;exitDy=0;dashed=1;entryX=0.5;entryY=1;entryDx=0;entryDy=0;" edge="1" parent="1" source="fdmkG5_0djtjP1UlIzq4-5" target="fdmkG5_0djtjP1UlIzq4-20">
          <mxGeometry width="50" height="50" relative="1" as="geometry">
            <mxPoint x="420" y="380" as="sourcePoint" />
            <mxPoint x="520" y="70" as="targetPoint" />
          </mxGeometry>
        </mxCell>
        <mxCell id="fdmkG5_0djtjP1UlIzq4-8" value="" style="endArrow=classic;html=1;rounded=0;entryX=0.5;entryY=1;entryDx=0;entryDy=0;exitX=0.5;exitY=0;exitDx=0;exitDy=0;exitPerimeter=0;" edge="1" parent="1" source="fdmkG5_0djtjP1UlIzq4-1" target="fdmkG5_0djtjP1UlIzq4-16">
          <mxGeometry width="50" height="50" relative="1" as="geometry">
            <mxPoint x="320" y="580" as="sourcePoint" />
            <mxPoint x="255" y="380" as="targetPoint" />
          </mxGeometry>
        </mxCell>
        <mxCell id="fdmkG5_0djtjP1UlIzq4-9" value="" style="endArrow=classic;html=1;rounded=0;exitX=0.5;exitY=0;exitDx=0;exitDy=0;exitPerimeter=0;entryX=0.5;entryY=1;entryDx=0;entryDy=0;" edge="1" parent="1" source="fdmkG5_0djtjP1UlIzq4-1" target="fdmkG5_0djtjP1UlIzq4-25">
          <mxGeometry width="50" height="50" relative="1" as="geometry">
            <mxPoint x="420" y="380" as="sourcePoint" />
            <mxPoint x="470" y="330" as="targetPoint" />
          </mxGeometry>
        </mxCell>
        <mxCell id="fdmkG5_0djtjP1UlIzq4-10" value="" style="endArrow=classic;html=1;rounded=0;exitX=0.5;exitY=0;exitDx=0;exitDy=0;entryX=0.5;entryY=1;entryDx=0;entryDy=0;dashed=1;" edge="1" parent="1" source="fdmkG5_0djtjP1UlIzq4-6" target="fdmkG5_0djtjP1UlIzq4-20">
          <mxGeometry width="50" height="50" relative="1" as="geometry">
            <mxPoint x="420" y="380" as="sourcePoint" />
            <mxPoint x="470" y="330" as="targetPoint" />
          </mxGeometry>
        </mxCell>
        <mxCell id="fdmkG5_0djtjP1UlIzq4-11" value="运营管理人员" style="sketch=0;outlineConnect=0;fontColor=#232F3E;gradientColor=none;strokeColor=#232F3E;fillColor=#ffffff;dashed=0;verticalLabelPosition=bottom;verticalAlign=top;align=center;html=1;fontSize=12;fontStyle=0;aspect=fixed;shape=mxgraph.aws4.resourceIcon;resIcon=mxgraph.aws4.certificate_manager;" vertex="1" parent="1">
          <mxGeometry x="571" y="549" width="60" height="60" as="geometry" />
        </mxCell>
        <mxCell id="fdmkG5_0djtjP1UlIzq4-12" value="" style="endArrow=classic;html=1;rounded=0;entryX=0.5;entryY=1;entryDx=0;entryDy=0;" edge="1" parent="1" source="fdmkG5_0djtjP1UlIzq4-11" target="fdmkG5_0djtjP1UlIzq4-5">
          <mxGeometry width="50" height="50" relative="1" as="geometry">
            <mxPoint x="600" y="500" as="sourcePoint" />
            <mxPoint x="470" y="330" as="targetPoint" />
          </mxGeometry>
        </mxCell>
        <mxCell id="fdmkG5_0djtjP1UlIzq4-13" value="" style="endArrow=classic;html=1;rounded=0;exitX=0.5;exitY=0;exitDx=0;exitDy=0;exitPerimeter=0;entryX=0.5;entryY=1;entryDx=0;entryDy=0;" edge="1" parent="1" source="fdmkG5_0djtjP1UlIzq4-1" target="fdmkG5_0djtjP1UlIzq4-15">
          <mxGeometry width="50" height="50" relative="1" as="geometry">
            <mxPoint x="420" y="380" as="sourcePoint" />
            <mxPoint x="470" y="330" as="targetPoint" />
          </mxGeometry>
        </mxCell>
        <mxCell id="fdmkG5_0djtjP1UlIzq4-14" value="" style="endArrow=classic;html=1;rounded=0;exitX=0.5;exitY=0;exitDx=0;exitDy=0;entryX=0.5;entryY=1;entryDx=0;entryDy=0;dashed=1;" edge="1" parent="1" source="fdmkG5_0djtjP1UlIzq4-15" target="fdmkG5_0djtjP1UlIzq4-18">
          <mxGeometry width="50" height="50" relative="1" as="geometry">
            <mxPoint x="420" y="380" as="sourcePoint" />
            <mxPoint x="465" y="380" as="targetPoint" />
          </mxGeometry>
        </mxCell>
        <mxCell id="fdmkG5_0djtjP1UlIzq4-15" value="lvs集群" style="image;aspect=fixed;perimeter=ellipsePerimeter;html=1;align=center;shadow=0;dashed=0;spacingTop=3;image=img/lib/active_directory/server_farm.svg;" vertex="1" parent="1">
          <mxGeometry x="480" y="398" width="50" height="50" as="geometry" />
        </mxCell>
        <mxCell id="fdmkG5_0djtjP1UlIzq4-16" value="&lt;div&gt;battlesvr集群&lt;/div&gt;" style="image;aspect=fixed;perimeter=ellipsePerimeter;html=1;align=center;shadow=0;dashed=0;spacingTop=3;image=img/lib/active_directory/server_farm.svg;" vertex="1" parent="1">
          <mxGeometry x="330" y="292" width="50" height="50" as="geometry" />
        </mxCell>
        <mxCell id="fdmkG5_0djtjP1UlIzq4-17" value="matchsvr集群" style="image;aspect=fixed;perimeter=ellipsePerimeter;html=1;align=center;shadow=0;dashed=0;spacingTop=3;image=img/lib/active_directory/server_farm.svg;" vertex="1" parent="1">
          <mxGeometry x="400" y="230" width="50" height="50" as="geometry" />
        </mxCell>
        <mxCell id="fdmkG5_0djtjP1UlIzq4-18" value="plazasvr集群" style="image;aspect=fixed;perimeter=ellipsePerimeter;html=1;align=center;shadow=0;dashed=0;spacingTop=3;image=img/lib/active_directory/server_farm.svg;" vertex="1" parent="1">
          <mxGeometry x="480" y="292" width="50" height="50" as="geometry" />
        </mxCell>
        <mxCell id="fdmkG5_0djtjP1UlIzq4-19" value="" style="endArrow=none;html=1;rounded=0;dashed=1;dashPattern=12 12;" edge="1" parent="1">
          <mxGeometry width="50" height="50" relative="1" as="geometry">
            <mxPoint x="160" y="496" as="sourcePoint" />
            <mxPoint x="720" y="496" as="targetPoint" />
          </mxGeometry>
        </mxCell>
        <mxCell id="fdmkG5_0djtjP1UlIzq4-20" value="" style="rounded=0;whiteSpace=wrap;html=1;fillColor=#f8cecc;strokeColor=#b85450;container=0;" vertex="1" parent="1">
          <mxGeometry x="210" y="66" width="420" height="90" as="geometry" />
        </mxCell>
        <mxCell id="fdmkG5_0djtjP1UlIzq4-21" value="" style="image;sketch=0;aspect=fixed;html=1;points=[];align=center;fontSize=12;image=img/lib/mscae/Cache_Redis_Product.svg;container=0;" vertex="1" parent="1">
          <mxGeometry x="530.1799197860962" y="82.06345686160972" width="65.48" height="55" as="geometry" />
        </mxCell>
        <mxCell id="fdmkG5_0djtjP1UlIzq4-22" value="" style="sketch=0;outlineConnect=0;fontColor=#232F3E;gradientColor=none;fillColor=#C925D1;strokeColor=none;dashed=0;verticalLabelPosition=bottom;verticalAlign=top;align=center;html=1;fontSize=12;fontStyle=0;aspect=fixed;pointerEvents=1;shape=mxgraph.aws4.rds_mysql_instance;container=0;" vertex="1" parent="1">
          <mxGeometry x="428.9954010695187" y="78.78801968731905" width="55" height="55" as="geometry" />
        </mxCell>
        <mxCell id="fdmkG5_0djtjP1UlIzq4-23" value="" style="aspect=fixed;sketch=0;html=1;dashed=0;whitespace=wrap;verticalLabelPosition=bottom;verticalAlign=top;fillColor=#2875E2;strokeColor=#ffffff;points=[[0.005,0.63,0],[0.1,0.2,0],[0.9,0.2,0],[0.5,0,0],[0.995,0.63,0],[0.72,0.99,0],[0.5,1,0],[0.28,0.99,0]];shape=mxgraph.kubernetes.icon2;kubernetesLabel=1;prIcon=etcd;container=0;" vertex="1" parent="1">
          <mxGeometry x="327.83" y="78.78999999999999" width="57.29" height="55" as="geometry" />
        </mxCell>
        <mxCell id="fdmkG5_0djtjP1UlIzq4-24" value="数据仓库" style="image;aspect=fixed;html=1;points=[];align=center;fontSize=12;image=img/lib/azure2/databases/SQL_Data_Warehouses.svg;container=0;" vertex="1" parent="1">
          <mxGeometry x="235.40342245989314" y="75.92704111175449" width="54.16" height="55" as="geometry" />
        </mxCell>
        <mxCell id="fdmkG5_0djtjP1UlIzq4-25" value="nginx集群" style="image;aspect=fixed;perimeter=ellipsePerimeter;html=1;align=center;shadow=0;dashed=0;spacingTop=3;image=img/lib/active_directory/server_farm.svg;" vertex="1" parent="1">
          <mxGeometry x="240" y="398" width="50" height="50" as="geometry" />
        </mxCell>
        <mxCell id="fdmkG5_0djtjP1UlIzq4-26" value="" style="endArrow=classic;html=1;rounded=0;exitX=0.5;exitY=0;exitDx=0;exitDy=0;entryX=0.5;entryY=1;entryDx=0;entryDy=0;dashed=1;" edge="1" parent="1" source="fdmkG5_0djtjP1UlIzq4-25" target="fdmkG5_0djtjP1UlIzq4-6">
          <mxGeometry width="50" height="50" relative="1" as="geometry">
            <mxPoint x="420" y="380" as="sourcePoint" />
            <mxPoint x="470" y="330" as="targetPoint" />
          </mxGeometry>
        </mxCell>
        <mxCell id="fdmkG5_0djtjP1UlIzq4-27" value="外部厂商" style="ellipse;shape=cloud;whiteSpace=wrap;html=1;" vertex="1" parent="1">
          <mxGeometry x="191" y="539" width="120" height="80" as="geometry" />
        </mxCell>
        <mxCell id="fdmkG5_0djtjP1UlIzq4-28" value="" style="endArrow=classic;html=1;rounded=0;exitX=0.625;exitY=0.2;exitDx=0;exitDy=0;exitPerimeter=0;entryX=0.5;entryY=1;entryDx=0;entryDy=0;" edge="1" parent="1" source="fdmkG5_0djtjP1UlIzq4-27" target="fdmkG5_0djtjP1UlIzq4-25">
          <mxGeometry width="50" height="50" relative="1" as="geometry">
            <mxPoint x="420" y="380" as="sourcePoint" />
            <mxPoint x="470" y="330" as="targetPoint" />
          </mxGeometry>
        </mxCell>
        <mxCell id="fdmkG5_0djtjP1UlIzq4-29" value="" style="endArrow=none;html=1;rounded=0;dashed=1;dashPattern=12 12;" edge="1" parent="1">
          <mxGeometry width="50" height="50" relative="1" as="geometry">
            <mxPoint x="160" y="384" as="sourcePoint" />
            <mxPoint x="720" y="384" as="targetPoint" />
          </mxGeometry>
        </mxCell>
        <mxCell id="fdmkG5_0djtjP1UlIzq4-30" value="" style="endArrow=none;html=1;rounded=0;dashed=1;dashPattern=12 12;" edge="1" parent="1">
          <mxGeometry width="50" height="50" relative="1" as="geometry">
            <mxPoint x="160" y="201" as="sourcePoint" />
            <mxPoint x="720" y="201" as="targetPoint" />
          </mxGeometry>
        </mxCell>
        <mxCell id="fdmkG5_0djtjP1UlIzq4-31" value="数据层" style="text;strokeColor=none;align=center;fillColor=none;html=1;verticalAlign=middle;whiteSpace=wrap;rounded=0;" vertex="1" parent="1">
          <mxGeometry x="70" y="100.93" width="60" height="30" as="geometry" />
        </mxCell>
        <mxCell id="fdmkG5_0djtjP1UlIzq4-32" value="游戏服务器层" style="text;strokeColor=none;align=center;fillColor=none;html=1;verticalAlign=middle;whiteSpace=wrap;rounded=0;" vertex="1" parent="1">
          <mxGeometry x="55" y="262" width="90" height="30" as="geometry" />
        </mxCell>
        <mxCell id="fdmkG5_0djtjP1UlIzq4-33" value="网络负载层" style="text;strokeColor=none;align=center;fillColor=none;html=1;verticalAlign=middle;whiteSpace=wrap;rounded=0;" vertex="1" parent="1">
          <mxGeometry x="55" y="418" width="90" height="30" as="geometry" />
        </mxCell>
        <mxCell id="fdmkG5_0djtjP1UlIzq4-34" value="外部" style="text;strokeColor=none;align=center;fillColor=none;html=1;verticalAlign=middle;whiteSpace=wrap;rounded=0;" vertex="1" parent="1">
          <mxGeometry x="55" y="555" width="90" height="30" as="geometry" />
        </mxCell>
        <mxCell id="fdmkG5_0djtjP1UlIzq4-35" value="" style="rounded=0;whiteSpace=wrap;html=1;opacity=0;" vertex="1" parent="1">
          <mxGeometry x="55" y="640" width="685" height="36" as="geometry" />
        </mxCell>
        <mxCell id="fdmkG5_0djtjP1UlIzq4-36" value="" style="rounded=0;whiteSpace=wrap;html=1;opacity=0;" vertex="1" parent="1">
          <mxGeometry x="55" y="10" width="685" height="36" as="geometry" />
        </mxCell>
      </root>
    </mxGraphModel>
  </diagram>
</mxfile>
